<?xml version="1.0" encoding="utf-8"?>
<!-- Generator: Adobe Illustrator 16.0.3, SVG Export Plug-In . SVG Version: 6.00 Build 0)  -->
<!DOCTYPE svg PUBLIC "-//W3C//DTD SVG 1.1//EN" "http://www.w3.org/Graphics/SVG/1.1/DTD/svg11.dtd">
<svg version="1.1" id="Capa_1" xmlns="http://www.w3.org/2000/svg" xmlns:xlink="http://www.w3.org/1999/xlink" x="0px" y="0px"
	 width="595.28px" height="841.89px" viewBox="0 0 595.28 841.89" enable-background="new 0 0 595.28 841.89" xml:space="preserve">
<g>
	<g>
		<path fill-rule="evenodd" clip-rule="evenodd" fill="#CC6701" d="M115.562,237.37c6.241,0,12.481,0,18.722,0
			c0.826,0.451,1.722,0.229,2.582,0.229c19.777,0.014,39.554,0.011,59.331,0.011c16.296,0,32.592,0,48.888,0
			c5.475,0,10.951,0,16.426,0c32.419,0.259,64.838,0.464,97.257,0c1.869,0,3.738,0,5.608,0c31.904,0,63.807,0,95.709,0
			c6.308,0,12.616,0.008,18.924-0.01c0.782-0.002,1.6,0.207,2.345-0.23c0.16,0,0.32,0,0.48,0c2.582,0.78,5.362,0.561,7.868,1.878
			c3.848,2.023,6.842,4.947,9.523,8.263c1.715,2.12,1.716,4.75,2.04,7.272c0.061,0.473,0.01,0.959,0.01,1.439
			c0,109.899-0.014,219.799,0.026,329.698c0.003,8.42-3.954,14.083-11.362,17.541c-3.054,1.425-6.441,1.092-9.679,1.1
			c-29.274,0.07-58.55,0.041-87.823,0.041c-29.515,0-59.031-0.19-88.544,0.059c-25.188,0.212-50.374,0.07-75.561,0.182
			c-22.365,0-44.73,0-67.095,0c-10.944,0-21.889,0-32.831,0c-2.038,0.13-4.099-0.28-6.124,0.24c-0.8,0-1.601,0-2.4,0
			c-1.28-0.391-2.56-0.391-3.84,0c-0.48,0-0.96,0-1.44,0c-1.338-0.605-2.796-0.475-4.196-0.622
			c-7.292-0.77-11.968-5.277-15.327-11.196c-1.732-3.054-1.158-6.815-1.358-10.293c0-2.633,0-5.264,0-7.896
			c0-36.717,0-73.431,0-110.146c0-61.007,0-122.014,0-183.019c0-1.473,0-2.947,0-4.42c-0.111-1.37,0.25-2.769-0.24-4.118
			c0-4.801,0-9.601,0-14.401c0.385-1.134,0.458-2.32,0.474-3.494c0.133-9.961,10.005-17.292,17.637-17.635
			C112.92,237.784,114.266,237.753,115.562,237.37z"/>
		<path fill-rule="evenodd" clip-rule="evenodd" fill="#FEFDFD" d="M228.394,604.67c5.677-0.034,11.354-0.094,17.031-0.099
			c15.84-0.015,31.682,0.198,47.517-0.054c23.194-0.369,46.386-0.126,69.578-0.189c37.594-0.103,75.188-0.108,112.783-0.151
			c3.275-0.004,6.535-0.108,9.802-0.5c7.916-0.947,15.731-9.382,15.927-17.366c0.019-0.72,0.003-1.439,0.003-2.159
			c0-108.796-0.017-217.591,0.055-326.386c0.003-4.83-1.719-8.668-4.855-12.069c-3.676-3.985-8.192-6.553-13.461-7.801
			c-0.376-0.089-0.813-0.014-0.938-0.526c6.158,0,12.316,0.03,18.475-0.029c1.015-0.01,1.42,0.175,1.219,1.224
			c-0.074,0.386-0.012,0.798-0.012,1.197c0,121.007-0.006,242.014,0.05,363.02c0.001,1.902-0.319,2.358-2.309,2.356
			c-90.295-0.064-180.59-0.056-270.885-0.056C228.039,604.926,228.046,604.79,228.394,604.67z"/>
		<path fill-rule="evenodd" clip-rule="evenodd" fill="#FEFEFE" d="M115.562,237.37c-1.017,0.903-2.343,0.69-3.525,0.903
			c-9.122,1.642-15.871,8.303-17.578,17.44c-0.209,1.118-0.181,2.315-0.979,3.259c0-7.201,0-14.401,0-21.602
			C100.841,237.37,108.201,237.37,115.562,237.37z"/>
		<path fill-rule="evenodd" clip-rule="evenodd" fill="#FEFEFE" d="M93.893,583.502c1.039,11.706,7.069,18.399,18.617,20.765
			c0.696,0.143,1.644-0.073,2.092,0.815c-6.641,0-13.281-0.03-19.922,0.03c-1.032,0.01-1.24-0.199-1.231-1.231
			c0.06-6.8,0.031-13.601,0.031-20.401C93.636,583.148,93.774,583.156,93.893,583.502z"/>
		<path fill-rule="evenodd" clip-rule="evenodd" fill="#F0D9C2" d="M93.9,281.562c0.02,0.638,0.057,1.277,0.057,1.915
			c0.003,59.768,0.003,119.535,0,179.303c0,0.718-0.043,1.436-0.066,2.153c-0.155,0.321-0.292,0.313-0.411-0.022
			c0-61.125,0-122.25,0-183.375C93.642,281.206,93.782,281.215,93.9,281.562z"/>
		<path fill-rule="evenodd" clip-rule="evenodd" fill="#FBF5F0" d="M358.927,237.791c-7.412,0.167-14.824,0.464-22.237,0.477
			c-19.002,0.032-38.006,0.065-57.005-0.181c-6.055-0.078-12.121,0.042-18.174-0.296c-0.342-0.127-0.348-0.268-0.016-0.42
			c32.483,0,64.965,0,97.449,0C359.275,237.523,359.27,237.663,358.927,237.791z"/>
		<path fill-rule="evenodd" clip-rule="evenodd" fill="#FEFEFE" d="M93.48,464.91c0.135,0.044,0.272,0.052,0.411,0.022
			c0.035,0.638,0.099,1.274,0.099,1.911c0.005,35.514,0.005,71.028,0,106.542c0,0.637-0.065,1.274-0.099,1.911
			c-0.119,0.348-0.255,0.355-0.412,0.023C93.48,538.516,93.48,501.713,93.48,464.91z"/>
		<path fill-rule="evenodd" clip-rule="evenodd" fill="#E2B184" d="M460.176,237.763c-0.238,0.023-0.477,0.068-0.716,0.068
			c-31.753-0.008-63.506-0.019-95.26-0.031c-0.324-0.161-0.316-0.305,0.023-0.43c32.003,0,64.005,0,96.008,0
			C460.563,237.551,460.546,237.682,460.176,237.763z"/>
		<path fill-rule="evenodd" clip-rule="evenodd" fill="#F0D9C2" d="M228.394,604.67c-0.003,0.138-0.011,0.274-0.022,0.412
			c-22.402,0-44.804,0-67.206,0c-0.33-0.162-0.322-0.305,0.023-0.43C183.591,604.659,205.992,604.665,228.394,604.67z"/>
		<path fill-rule="evenodd" clip-rule="evenodd" fill="#D68A51" d="M196.261,237.768c-19.342,0.027-38.684,0.065-58.026,0.06
			c-1.316,0-2.722,0.428-3.951-0.458c20.642,0,41.284,0,61.925,0c0.205,0.063,0.28,0.143,0.228,0.24
			C196.38,237.715,196.322,237.768,196.261,237.768z"/>
		<path fill-rule="evenodd" clip-rule="evenodd" fill="#E2B185" d="M196.261,237.768c-0.013-0.133-0.03-0.266-0.052-0.398
			c16.321,0,32.643,0,48.964,0c0.339,0.125,0.347,0.269,0.022,0.43C228.884,237.79,212.572,237.779,196.261,237.768z"/>
		<path fill-rule="evenodd" clip-rule="evenodd" fill="#E2B185" d="M161.189,604.653c-0.032,0.142-0.04,0.285-0.023,0.43
			c-11.041,0-22.082,0-33.123,0c-0.331-0.174-0.316-0.313,0.042-0.418C139.12,604.661,150.154,604.657,161.189,604.653z"/>
		<path fill-rule="evenodd" clip-rule="evenodd" fill="#D68A51" d="M460.176,237.763c0.014-0.132,0.032-0.263,0.056-0.393
			c7.041,0,14.081,0,21.122,0c-0.398,0.52-0.984,0.476-1.532,0.474C473.272,237.824,466.725,237.792,460.176,237.763z"/>
		<path fill-rule="evenodd" clip-rule="evenodd" fill="#F0D9C2" d="M245.196,237.8c-0.033-0.142-0.041-0.285-0.022-0.43
			c5.44,0,10.881,0,16.321,0c0,0.14,0.005,0.281,0.016,0.42C256.072,237.794,250.634,237.797,245.196,237.8z"/>
		<path fill-rule="evenodd" clip-rule="evenodd" fill="#F0D9C2" d="M93.48,575.32c0.135-0.044,0.272-0.052,0.412-0.023
			c0,2.735,0.001,5.471,0.001,8.206l-0.208,0.015l-0.206-0.037C93.48,580.76,93.48,578.04,93.48,575.32z"/>
		<path fill-rule="evenodd" clip-rule="evenodd" fill="#D6894F" d="M128.085,604.665c-0.02,0.139-0.034,0.278-0.042,0.418
			c-1.92,0-3.84,0-5.76,0C124.158,604.129,126.147,604.755,128.085,604.665z"/>
		<path fill-rule="evenodd" clip-rule="evenodd" fill="#F0D9C2" d="M364.224,237.37c0.018,0.145,0.01,0.289-0.023,0.43
			c-1.757-0.003-3.515-0.006-5.273-0.01c0.011-0.14,0.016-0.28,0.017-0.42C360.703,237.37,362.463,237.37,364.224,237.37z"/>
		<path fill-rule="evenodd" clip-rule="evenodd" fill="#E3B286" d="M93.9,281.562c-0.141,0-0.281-0.008-0.42-0.027
			c0-1.44,0-2.88,0-4.321c0.165-0.321,0.311-0.313,0.436,0.026C93.911,278.68,93.905,280.121,93.9,281.562z"/>
		<path fill-rule="evenodd" clip-rule="evenodd" fill="#D78D54" d="M93.916,277.239c-0.145-0.014-0.29-0.023-0.436-0.026
			c0-1.28,0-2.56,0-3.84C94.345,274.581,93.83,275.944,93.916,277.239z"/>
		<path fill-rule="evenodd" clip-rule="evenodd" fill="#D78C53" d="M116.042,605.083c1.28-0.761,2.561-0.686,3.84,0
			C118.603,605.083,117.322,605.083,116.042,605.083z"/>
		<path fill-rule="evenodd" clip-rule="evenodd" fill="#FEFEFE" d="M486.546,382.419c0.026,34.64,0.052,69.28,0.082,103.918
			c0.006,7.12-0.125,14.245,0.114,21.357c0.098,2.905-1.625,2.1-3.161,2.32c-2.151,0.31-2.048-0.954-2.05-2.415
			c-0.018-10.157-0.127-20.313-0.077-30.47c0.009-1.81-0.464-2.308-2.256-2.237c-3.674,0.145-7.36-0.029-11.037,0.076
			c-1.604,0.047-2.334-0.303-2.197-2.081c0.146-1.907,0.009-3.837-0.006-5.757c-0.084-11.272-0.163-22.546-0.256-33.819
			c-0.027-3.368-0.044-3.38-3.288-3.409c-9.115-0.082-18.232-0.139-27.348-0.236c-2.954-0.031-5.909-0.123-8.859-0.263
			c-1.163-0.056-1.678,0.371-1.453,1.496c0.611,3.059-0.676,5.084-3.238,6.657c-1.414,0.868-2.487,2.287-3.894,3.171
			c-3.017,1.895-3.92,4.59-3.669,7.972c0.195,2.627,0.201,5.271,0.217,7.907c0.099,16.952,0.15,33.903,0.305,50.854
			c0.017,1.886-0.481,2.539-2.403,2.416c-3.345-0.213-6.706-0.306-10.057-0.245c-1.57,0.029-1.821-0.54-1.812-1.932
			c0.048-7.439-0.027-14.88,0.014-22.318c0.008-1.382-0.297-2.393-1.435-3.292c-1.436-1.135-2.595-2.623-4.041-3.742
			c-3.265-2.526-3.652-6.041-3.371-9.688c0.222-2.88,0.056-5.751,0.208-8.619c0.083-1.565-0.615-1.825-1.986-1.844
			c-7.59-0.104-15.183-0.194-22.765-0.517c-2.308-0.099-2.823,0.917-3.148,2.817c-0.625,3.65-0.051,7.313-0.303,10.972
			c-0.173,2.526-0.971,4.472-2.928,5.985c-1.833,1.418-3.68,2.816-5.514,4.233c-0.996,0.771-1.524,1.675-1.463,3.061
			c0.242,5.504,0.362,11.015,0.508,16.523c0.013,0.498,0.457,1.188-0.286,1.457c-0.578,0.209-1.045-0.295-1.47-0.635
			c-3.765-3.004-6.962-6.587-10.265-10.063c-3.579-3.768-7.021-7.67-10.87-11.173c-0.564-0.514-1.169-1.411-2.016-0.984
			c-0.941,0.473,0.054,1.236,0.091,1.871c0.302,5.218,0.703,10.43,1.118,16.271c-8.02-5.697-13.09-13.613-20.739-19.563
			c0.401,6.901,0.772,13.28,1.187,20.381c-6.197-4.709-9.795-11.187-15.181-15.804c0,4.902,0.026,9.647-0.008,14.393
			c-0.027,3.671,0.197,7.341-0.335,11.014c-0.214,1.474-0.636,1.984-2.147,2.185c-1.702,0.226-3.332-0.214-4.991-0.068
			c-1.02,0.089-1.082-0.511-1.191-1.322c-0.787-5.818-0.248-11.661-0.392-17.49c-0.138-5.578,0.623-11.193-0.539-16.729
			c-1.834-8.741-9.93-14.816-19.368-14.614c-9.47,0.202-17.235,6.547-18.52,15.521c-1.113,7.78-0.428,15.634-0.325,23.457
			c0.059,4.474,0.237,8.947,0.275,13.421c0.011,1.24-0.283,2.438-2.058,2.21c-1.512-0.195-2.749-0.371-2.766-2.453
			c-0.083-10.391-0.348-20.78-0.383-31.171c-0.006-1.765-0.475-2.396-2.14-2.529c-3.5-0.28-6.985-0.791-10.489-0.961
			c-1.925-0.094-2.796-0.846-3.313-2.665c-3.765-13.246-7.615-26.468-11.441-39.695c-5.107-17.657-10.22-35.311-15.321-52.968
			c-0.176-0.609-0.204-1.272-1.226-1.95c-7.496,37.097-13.892,74.208-20.872,111.204c-0.257-0.005-0.514-0.009-0.77-0.014
			c-1.972-19.66-3.943-39.321-5.986-59.701c-2.13,4.906-3.103,9.398-4.295,13.818c-1.741,6.451-3.247,12.964-5.325,19.324
			c-0.681,2.088-1.719,2.978-4.106,2.901c-6.372-0.202-6.374-0.065-6.377-6.443c-0.002-4.871,0.091-9.745-1.002-14.547
			c-1.682-7.387-6.906-11.472-14.25-11.079c-5.958,0.318-11.846,6.354-12.653,12.804c-0.519,4.145-0.43,8.294-0.433,12.446
			c-0.007,13.359-0.005,26.72-0.001,40.08c0.002,5.738,0.009,5.738-5.767,5.738c-1.6,0-3.201,0.033-4.8-0.01
			c-3.046-0.081-3.888-0.895-3.643-3.958c0.217-2.713,0.259-5.421,0.259-8.135c0.002-75.92,0.002-151.84,0-227.761
			c0-1.839-0.047-3.679-0.037-5.519c0.036-6.395,2.916-9.133,9.37-9.601c5.128-0.371,10.216,0.118,15.323,0.116
			c55.44-0.016,110.88,0.012,166.321,0.027c3.619,0.001,3.627,0,3.908,3.596c0.634,8.118,1.664,16.163,3.839,24.044
			c0.479,1.736,1.224,2.229,2.929,2.08c5.487-0.479,10.966-1.102,16.494-0.987c1.617,0.034,2.624,0.364,3.131,2.144
			c1.026,3.607,2.757,6.954,4.484,10.267c1.408,2.7,1.239,5.208-0.361,7.667c-3.093,4.748-6.19,9.494-9.394,14.167
			c-0.806,1.175-0.77,1.984-0.028,3.147c4.859,7.624,10.235,14.862,15.92,21.886c1.116,1.379,2.297,1.417,3.793,1.09
			c6.61-1.441,13.243-2.784,19.836-4.303c1.289-0.297,2.005-0.163,2.831,0.883c2.87,3.629,6.722,6.12,10.517,8.636
			c1.979,1.312,2.705,2.594,1.769,5.097c-1.95,5.209-3.4,10.603-5.228,15.86c-0.51,1.469-0.226,2.367,0.784,3.373
			c3.156,3.142,6.927,5.383,10.803,7.462c6.963,3.734,14.251,6.713,21.708,9.313c1.537,0.537,2.488,0.342,3.513-0.905
			c3.752-4.57,7.618-9.046,11.374-13.613c1.307-1.59,2.614-2.1,4.751-1.525c5.229,1.407,10.52,2.577,15.673,4.279
			c1.38,0.456,1.983,1.115,2.084,2.672c0.358,5.572,0.941,11.13,1.384,16.698c0.122,1.526,0.749,2.368,2.261,2.908
			c5.439,1.942,11.088,2.917,16.76,3.7c5.218,0.72,10.47,1.245,15.763,1.047c3.112-0.116,3.347-0.255,3.551-3.42
			c0.232-3.585,0.414-7.175,0.508-10.766c0.057-2.159,0.146-4.305,0.523-6.433C486.003,382.065,486.285,382.057,486.546,382.419z"/>
		<path fill-rule="evenodd" clip-rule="evenodd" fill="#FEFEFE" d="M151.6,530.062c5.617-13.292,8.076-27.651,13.515-41.013
			c0.215,0.037,0.43,0.075,0.645,0.113c0.4,3.765,0.797,7.53,1.201,11.294c0.127,1.188,0.285,2.371,0.406,3.56
			c0.539,5.296,0.535,5.348,5.825,5.485c3.917,0.102,7.839,0.025,11.758,0.081c1.086,0.016,1.452-0.359,1.669-1.47
			c2.261-11.562,3.801-23.239,5.749-34.85c2.051-12.229,4.231-24.438,6.419-36.644c0.825-4.6,1.829-9.167,3.147-13.806
			c0.663,2.546,1.207,5.129,2.009,7.63c5.65,17.623,9.66,35.717,15.31,53.34c0.612,1.908,1.239,3.144,3.698,3.034
			c1.956-0.087,3.98,0.07,5.973,0.141c2.679,0.095,3.709,0.887,3.767,3.543c0.106,4.858,0.127,9.729-0.085,14.582
			c-0.25,5.682,0.135,11.346,0.102,17.018c-0.006,1.068,0.371,1.359,1.389,1.354c7.2-0.032,14.4-0.067,21.6,0.015
			c1.984,0.022,1.427-1.277,1.429-2.252c0.022-13.278,0.013-26.558,0.017-39.837c0-1.195,0.069-2.365,0.345-3.56
			c1.63-7.052,7.693-10.184,14.416-7.381c3.15,1.313,4.456,3.906,4.989,7.071c0.549,3.26,0.083,6.512,0.043,9.772
			c-0.122,10.077-0.004,20.157-0.083,30.234c-0.013,1.732,0.561,2.131,2.192,2.115c7.759-0.076,15.52-0.07,23.28-0.002
			c1.386,0.012,1.891-0.323,2.078-1.773c0.387-3.011,0.055-6.086,1.005-9.385c6.374,5.035,10.972,11.771,17.481,17.135
			c0.07-6.49-0.786-12.515-0.352-19.004c4.336,2.623,7.495,6.288,10.983,9.536c3.548,3.304,6.801,6.931,11.095,10.217
			c-1.023-6.387-1.962-12.24-2.933-18.293c1.595,0.04,2.545,1.013,3.542,1.822c5.716,4.641,10.672,10.111,16.245,14.909
			c1.068,0.919,2.182,1.784,3.41,2.786c0-3.302,0.051-6.291-0.009-9.278c-0.205-10.224-0.441-20.445-0.692-30.668
			c-0.024-0.959,0.136-1.707,1.063-2.182c0.418-0.215,0.763-0.574,1.138-0.872c6.877-5.449,6.959-5.45,6.868-14.176
			c-0.021-2.067,0.723-2.654,2.538-2.587c0.879,0.032,1.76,0.005,2.64-0.017c3.254-0.08,3.263-0.083,3.539,3.138
			c0.062,0.716,0.134,1.451,0.039,2.156c-0.605,4.529,1.192,7.914,4.854,10.454c2.38,1.649,2.811,4.155,2.828,6.773
			c0.04,5.761-0.037,11.521,0.032,17.28c0.041,3.351,0.313,6.698,0.396,10.05c0.027,1.127,0.396,1.491,1.539,1.486
			c10.56-0.038,21.12-0.033,31.68-0.005c1.079,0.003,1.697-0.254,1.563-1.456c-0.035-0.316-0.002-0.64,0-0.96
			c0.085-21.911,0.169-43.822,0.261-65.734c0.005-1.272-0.028-2.533,0.32-3.804c0.94-3.429,2.043-4.45,5.522-4.95
			c2.396-0.345,4.779-0.206,7.16,0.092c1.214,0.151,3.44,3.333,3.613,5.14c0.068,0.714,0.028,1.438,0.028,2.158
			c0.001,19.2,0.011,38.4-0.011,57.6c-0.003,2.792-0.12,5.585-0.258,8.374c-0.11,2.205,0.724,3.169,3.061,3.141
			c6.477-0.078,12.955,0.028,19.433,0.045c1.837,0.006,1.964-1.532,1.867-2.655c-0.761-8.865-0.168-17.743-0.35-26.611
			c-0.052-2.55,0.639-2.99,3.708-3.063c2.324-0.055,2.023,1.535,2.048,2.93c0.157,8.788,0.369,17.576,0.378,26.364
			c0.002,2.312,0.842,3.132,3.012,3.075c3.273-0.086,6.551-0.044,9.823-0.149c1.819-0.06,2.464,0.545,2.46,2.49
			c-0.029,15.355,0.105,30.711,0.095,46.066c-0.003,5.748-0.237,11.498-0.409,17.245c-0.077,2.583-1.607,4.219-4.166,4.815
			c-2.539,0.592-5.082,0.26-7.632,0.262c-70.476,0.054-140.952,0.032-211.427,0.281c-15.832,0.056-31.666,0.104-47.499,0.166
			c-32.156,0.126-64.312,0.161-96.468,0.243c-2.244,0.006-4.446-0.157-6.583-0.932c-2.504-0.907-3.851-2.598-4.098-5.293
			c-0.915-9.98-0.328-19.979-0.425-29.967c-0.118-12.065,0.84-24.125,0.287-36.193c-0.084-1.85,1.215-1.359,2.116-1.371
			c6.556-0.095,13.113-0.206,19.668-0.134c1.684,0.018,2.262-0.565,2.293-2.076c0.019-0.879,0.08-1.756,0.08-2.634
			c0.004-20.479,0.013-40.96-0.014-61.44c-0.002-1.762,0.178-3.37,1.757-4.447c2.585-1.766,5.886-0.489,6.45,2.646
			c1.042,5.786,0.458,11.635,0.371,17.458c-0.043,2.873-0.147,5.748-0.357,8.612c-0.131,1.783,0.278,2.636,2.305,2.45
			c1.981-0.181,4.004,0.123,5.992-0.021c1.824-0.133,2.283,0.503,2.271,2.288c-0.065,10.239,0.002,20.479,0.016,30.718
			C151.606,516.624,151.6,523.342,151.6,530.062z"/>
		<path fill-rule="evenodd" clip-rule="evenodd" fill="#FEFEFE" d="M441.346,300.215c-0.354,0.652-0.683,1.382-1.119,2.04
			c-5.905,8.897-11.828,17.784-17.742,26.676c-0.45,0.679-0.776,1.403-1.824,0.674c-9.871-6.873-20.119-13.252-27.748-22.881
			c-4.181-5.277-4.256-5.06,1.524-8.128c8.775-4.658,17.487-9.438,26.159-14.288c1.672-0.936,2.846-0.859,4.208,0.382
			c5.074,4.621,10.198,9.185,15.282,13.793C440.592,298.94,441.253,299.339,441.346,300.215z"/>
		<path fill-rule="evenodd" clip-rule="evenodd" fill="#FEFEFE" d="M459.175,252.232c6.454-0.133,12.898-0.503,19.362-0.053
			c4.984,0.348,7.576,2.707,8.173,7.751c0.282,2.385,0.419,4.763,0.371,7.155c-0.066,3.378-1.14,5-4.372,5.604
			c-8.662,1.618-17.014,0.457-24.624-4.041c-5.35-3.162-6.991-8.597-7.496-14.461c-0.096-1.11,0.295-1.4,1.429-1.563
			C454.403,252.283,456.784,252.251,459.175,252.232z"/>
		<path fill-rule="evenodd" clip-rule="evenodd" fill="#FEFEFE" d="M385.873,252.217c6.718,0,13.436,0.005,20.152-0.005
			c1.055-0.001,2.059-0.162,2.202,1.416c0.123,1.353,0.035,2.131-1.562,2.586c-8.262,2.353-16.692,3.934-25.092,5.651
			c-4.433,0.906-8.913,1.575-13.352,2.457c-1.379,0.274-1.849-0.247-2.108-1.461c-0.598-2.794-1.196-5.593-1.936-8.351
			c-0.46-1.715-0.202-2.321,1.78-2.283c6.636,0.128,13.276,0.049,19.914,0.049C385.873,252.256,385.873,252.236,385.873,252.217z"/>
		<path fill-rule="evenodd" clip-rule="evenodd" fill="#FEFEFE" d="M486.669,329.9c0,5.989-0.03,11.979,0.021,17.968
			c0.013,1.4-0.109,1.913-1.821,1.579c-5.449-1.062-5.316-0.965-5.505-6.611c-0.324-9.712-0.921-19.416-1.281-29.127
			c-0.145-3.903-0.841-3.34,3.204-3.759c5.374-0.557,5.382-0.481,5.382,4.858C486.669,319.838,486.669,324.869,486.669,329.9z"/>
		<path fill-rule="evenodd" clip-rule="evenodd" fill="#FEFEFE" d="M455.425,450.369c0.039,12.539,0.493,23.879,0.611,35.226
			c0.078,7.504,0.371,15.011,0.41,22.521c0.006,1.275-0.052,2.03-1.728,2.021c-1.66-0.009-1.74-0.748-1.745-2.032
			c-0.05-13.345-0.406-26.686-0.56-40.028c-0.083-7.244,0.17-14.534-0.83-21.758c-0.202-1.461-0.5-2.787-1.975-3.566
			c-1.041-0.549-0.978-1.752-1.288-2.713c-0.068-0.209-0.055-0.63,0.052-0.681c1.732-0.826,3.57-0.135,5.354-0.335
			c1.149-0.128,1.197,0.691,1.332,1.53C455.645,444.208,455.239,447.896,455.425,450.369z"/>
		<path fill-rule="evenodd" clip-rule="evenodd" fill="#E0A97A" d="M486.546,382.419c-0.281-0.017-0.562-0.033-0.843-0.049
			c-0.097-0.648,0.057-1.174,0.664-1.533C486.773,381.385,486.634,381.904,486.546,382.419z"/>
		<path fill-rule="evenodd" clip-rule="evenodd" fill="#CC6701" d="M358.031,424.398c-20.326,4.586-39.307,2.117-56.582-9.932
			c-3.902-2.722-7.052-6.254-9.676-10.209c-0.896-1.351-1.93-1.8-3.517-1.816c-8.706-0.09-17.42-0.095-26.114-0.496
			c-13.119-0.605-26.078-2.246-37.953-8.452c-6.439-3.366-12.548-7.299-18.405-11.606c-0.684-0.503-1.478-0.957-1.849-2.022
			c3.474-1.148,7.079-1.135,10.597-1.271c10.781-0.417,21.572-0.265,32.359-0.055c14.601,0.285,26.199,7.122,36.511,16.753
			c0.818,0.764,1.749,1.474,2.35,2.39c2.435,3.714,5.858,4.575,10.118,4.402c11.693-0.475,22.562,3.378,33.455,6.94
			c9.218,3.015,17.932,7.07,25.806,12.797C356.14,422.553,357.312,423.132,358.031,424.398z"/>
		<path fill-rule="evenodd" clip-rule="evenodd" fill="#CC6701" d="M415.873,426.779c-7.594,3.614-14.746,6.317-22.446,6.821
			c-8.451,0.553-16.916,0.161-25.271-1.394c-1.958-0.364-4.884-0.472-5.077-2.699c-0.16-1.855,2.5-2.838,4.291-3.676
			c6.591-3.082,13.684-3.955,20.773-3.504C397.264,422.908,406.289,424.532,415.873,426.779z"/>
		<path fill-rule="evenodd" clip-rule="evenodd" fill="#CC6701" d="M192.255,377.173c-3.77-2.273-6.804-4.921-9.685-7.748
			c-6.442-6.324-12.931-12.619-18.142-20.047c-3.865-5.51-5.863-11.584-5.015-18.586c2.887,2.799,5.655,5.483,8.422,8.167
			c1.145,1.11,2.233,2.286,3.438,3.326c10.466,9.032,15.639,21.305,20.669,33.668C192.054,376.226,192.093,376.527,192.255,377.173z
			"/>
		<path fill-rule="evenodd" clip-rule="evenodd" fill="#CC6701" d="M125.686,344.226c2.774,0,5.549-0.019,8.324,0.005
			c2.314,0.02,4.628,0.145,6.941,0.113c1.16-0.016,1.515,0.284,1.769,1.533c0.459,2.263-0.292,2.634-2.381,2.625
			c-7.503-0.028-15.007,0.178-22.511,0.207c-0.933,0.003-2.596,0.787-2.701-0.878c-0.11-1.752-1.225-3.819,1.484-5.129
			c4.296-2.078,8.393-4.574,12.544-6.945c1.014-0.58,2.107-1.107,2.881-2.12c-0.783-1.039-1.901-0.77-2.857-0.745
			c-3.747,0.096-7.49,0.372-11.237,0.416c-1.788,0.021-3.543-0.191-3.367-2.865c0.1-1.514,0.62-1.867,2.014-1.856
			c4.873,0.037,9.747-0.023,14.621-0.067c2.794-0.025,5.59-0.168,8.381-0.09c0.949,0.026,2.509-0.801,2.784,0.796
			c0.283,1.647,0.814,3.583-0.951,4.869c-1.089,0.794-2.28,1.453-3.456,2.12c-3.737,2.121-7.644,3.947-11.191,6.399
			c-0.446,0.308-0.847,0.683-1.269,1.026C125.566,343.836,125.626,344.031,125.686,344.226z"/>
		<path fill-rule="evenodd" clip-rule="evenodd" fill="#CC6701" d="M199.974,275.781c0.045-5.08,1.904-9.16,6.589-11.581
			c4.968-2.567,9.931-2.585,14.787,0.33c0.675,0.405,1.354,0.917,1.816,1.539c0.837,1.127,2.454,2.246,1.461,3.801
			c-0.71,1.113-4.285,0.615-5.426-0.372c-0.902-0.78-1.821-1.577-2.844-2.177c-2.852-1.672-5.788-1.241-8.031,1.164
			c-4.348,4.662-4.451,14.029,2.926,16.156c3.16,0.911,6.005-0.113,8.7-1.555c1.309-0.7,0.193-2.029,0.268-3.064
			c0.086-1.212-0.92-0.827-1.539-0.885c-0.793-0.075-1.6,0.011-2.396-0.047c-1.044-0.076-2.53,0.585-2.314-1.566
			c0.164-1.631,0.214-2.95,2.492-2.715c2.531,0.261,5.095,0.281,7.644,0.266c1.307-0.008,1.657,0.515,1.595,1.706
			c-0.066,1.275-0.058,2.561,0.021,3.834c0.33,5.355,1.3,4.473-4.202,6.971c-3.44,1.563-7.133,2.103-10.967,1.262
			C203.807,287.367,199.998,282.736,199.974,275.781z"/>
		<path fill-rule="evenodd" clip-rule="evenodd" fill="#CC6701" d="M282.507,289.223c-7.678,0.012-13.292-5.552-13.339-13.222
			c-0.049-7.969,5.955-13.694,14.325-13.661c7.465,0.03,12.789,5.76,12.757,13.731C296.217,284.168,290.951,289.209,282.507,289.223
			z"/>
		<path fill-rule="evenodd" clip-rule="evenodd" fill="#CC6701" d="M169.321,275.637c-0.23-9.359,6.491-12.93,14.23-13.207
			c7.336-0.261,12.72,5.713,12.71,13.527c-0.01,7.992-5.442,13.256-13.688,13.265C174.455,289.23,169.327,283.973,169.321,275.637z"
			/>
		<path fill-rule="evenodd" clip-rule="evenodd" fill="#CC6701" d="M128.125,299.244c7.223-0.006,12.037,2.726,14.073,7.724
			c2.566,6.296-0.627,13.403-7.188,15.726c-4.165,1.475-8.426,1.579-12.656,0.184c-5.697-1.879-8.451-6.062-8.256-12.446
			c0.158-5.189,3.562-9.199,9.049-10.595C124.926,299.383,126.735,299.07,128.125,299.244z"/>
		<path fill-rule="evenodd" clip-rule="evenodd" fill="#CC6701" d="M128.762,398.857c-3.671,0-7.345-0.059-11.015,0.027
			c-1.584,0.037-2.35-0.15-2.46-2.114c-0.288-5.108-0.048-10.215-0.225-15.317c-0.083-2.37,1.694-1.257,2.699-1.485
			c1.108-0.251,1.752,0.099,1.694,1.492c-0.122,2.951-0.118,5.91-0.07,8.864c0.061,3.78,2.678,5.275,5.982,3.502
			c0.76-0.408,0.535-1.083,0.551-1.674c0.085-3.191,0.257-6.389,0.153-9.576c-0.059-1.793,0.915-1.688,2.081-1.641
			c1.124,0.045,2.385-0.415,2.307,1.642c-0.115,3.025,0.138,6.063,0.163,9.096c0.012,1.492,0.345,2.245,2.143,2.233
			c5.646-0.037,5.646,0.048,5.646-5.562c0-2.316,0.069-4.635-0.021-6.948c-0.061-1.541,0.696-1.857,2.029-1.934
			c1.355-0.077,2.335,0.061,2.449,1.694c0.373,5.344,0.191,10.686,0.026,16.029c-0.041,1.328-0.822,1.521-1.91,1.513
			c-4.073-0.024-8.147-0.01-12.221-0.01C128.762,398.744,128.762,398.801,128.762,398.857z"/>
		<path fill-rule="evenodd" clip-rule="evenodd" fill="#CC6701" d="M254.296,289.403c-7.171-0.237-13.433-6.113-13.337-13.091
			c0.091-6.681,3.39-12.809,12.061-13.903c4.615-0.583,9.641,1.931,11.358,5.534c0.659,1.381,0.332,2.124-1.056,2.417
			c-1.73,0.365-3.178,0.813-4.684-1.237c-3.018-4.11-8.44-3.298-10.687,1.33c-1.74,3.583-1.57,7.276-0.107,10.89
			c0.924,2.283,2.836,3.327,5.248,3.577c2.551,0.265,4.463-0.561,5.839-2.834c0.628-1.039,0.773-2.88,3.022-2.1
			c3.541,1.228,3.668,1.33,1.622,4.574C261.419,287.979,258.262,289.461,254.296,289.403z"/>
		<path fill-rule="evenodd" clip-rule="evenodd" fill="#CC6701" d="M129.07,375.663c-3.781,0.168-7.111-0.713-10.056-2.85
			c-6.542-4.747-6.044-14.501,0.925-18.125c0.877-0.456,1.973-1.25,2.593,0.239c0.51,1.226,1.554,2.558,0.104,3.875
			c-0.354,0.321-0.72,0.641-1.124,0.891c-4.515,2.795-2.544,8.407,1.274,9.854c3.964,1.502,7.916,1.634,11.888,0.111
			c2.563-0.982,3.989-2.911,4.164-5.607c0.158-2.443-1.602-3.663-3.474-4.697c-1.085-0.6-2.375-0.895-2.047-2.701
			c0.509-2.8,1.448-3.396,3.872-1.982c3.689,2.152,6.418,4.95,6.285,9.66c-0.13,4.612-2.74,7.517-6.495,9.586
			C134.498,375.284,131.772,375.888,129.07,375.663z"/>
		<path fill-rule="evenodd" clip-rule="evenodd" fill="#CB651A" d="M134.445,415.043c-4.062,0-8.124,0.041-12.184-0.019
			c-1.784-0.026-2.695,0.526-2.393,2.478c0.133,0.857-0.095,1.772,0.045,2.627c0.357,2.182-0.563,2.775-2.628,2.601
			c-1.147-0.098-1.691-0.195-1.711-1.542c-0.084-5.58-0.292-11.158-0.443-16.737c-0.028-1.018-0.263-2.207,1.459-1.961
			c1.25,0.179,3.113-0.706,2.897,1.842c-0.059,0.698,0.162,1.42,0.251,2.132c0.451,3.601,0.456,3.503,4.233,3.69
			c5.356,0.265,10.671-0.593,16.017-0.452c1.823,0.048,3.359,0.452,3.413,2.739c0.039,1.595-0.481,2.47-2.282,2.635
			C138.894,415.281,136.68,415.494,134.445,415.043z"/>
		<path fill-rule="evenodd" clip-rule="evenodd" fill="#CC6701" d="M254.72,312.387c0-1.759-0.012-3.518,0.003-5.276
			c0.017-2.063,1.239-2.945,2.968-1.799c1.296,0.86,2.079,0.588,3.182-0.075c1.927-1.159,3.895-0.858,5.593,0.443
			c1.157,0.887,2.051,0.889,3.193,0.08c0.631-0.446,1.436-0.679,2.191-0.913c2.723-0.841,4.548,0.015,5.464,2.668
			c1.285,3.723,0.949,7.549,0.517,11.362c-0.15,1.328-1.23,1.001-2.052,1.011c-1.063,0.013-1.909-0.295-1.855-1.614
			c0.117-2.892-0.527-5.707-0.829-8.558c-0.136-1.289-0.421-2.171-1.841-2.282c-1.412-0.11-2.006,0.887-2.376,1.958
			c-0.906,2.623-0.835,5.376-0.556,8.061c0.222,2.137-0.541,2.437-2.416,2.257c-1.274-0.123-1.588-0.498-1.564-1.701
			c0.048-2.3,0.549-4.588,0.084-6.908c-0.333-1.669-0.438-3.554-2.682-3.595c-2.261-0.042-2.786,1.771-3.136,3.56
			c-0.466,2.377-0.095,4.764-0.063,7.149c0.007,0.562,0.601,1.934-0.911,1.486c-1.031-0.306-3.016,0.984-2.927-1.559
			C254.774,316.227,254.72,314.306,254.72,312.387z"/>
		<path fill-rule="evenodd" clip-rule="evenodd" fill="#CC6702" d="M139.719,269.373c0.487,0.101,0.518,0.822,0.78,1.346
			c2.672,5.338,5.475,10.604,8.543,15.729c0.861,1.438,1.717,1.822,3.228,0.958c2.688-1.54,5.432-2.981,8.176-4.419
			c0.791-0.415,1.766-1.2,2.238,0.394c0.319,1.074,1.695,2.111-0.138,3.21c-4.441,2.665-8.988,5.122-13.645,7.384
			c-0.923,0.449-1.493,0.146-1.959-0.623c-0.744-1.225-1.526-2.431-2.201-3.693c-2.813-5.264-5.627-10.528-8.367-15.829
			C135.202,271.559,136.892,269.161,139.719,269.373z"/>
		<path fill-rule="evenodd" clip-rule="evenodd" fill="#CB651B" d="M180.085,306.361c0,3.822-0.019,7.645,0.008,11.467
			c0.014,1.916-0.942,2.482-2.587,1.809c-1.157-0.474-2.18-0.646-3.408-0.214c-7.189,2.53-9.633-2.399-9.363-8.078
			c0.257-5.4,4.294-7.797,9.395-6.02c1.481,0.516,1.879,0.183,1.895-1.195c0.008-0.797,0.013-1.596,0.012-2.393
			c-0.003-2.389,0.64-2.933,2.954-2.632c0.958,0.124,1.386,0.491,1.351,1.516c-0.066,1.912-0.019,3.828-0.019,5.742
			C180.243,306.362,180.164,306.362,180.085,306.361z"/>
		<path fill-rule="evenodd" clip-rule="evenodd" fill="#CB651B" d="M192.904,313.692c-1.038,0-2.09-0.103-3.11,0.035
			c-0.708,0.095-2.014-0.639-2.008,0.761c0.005,1.199,0.596,2.361,2.071,2.537c1.05,0.125,2.076-0.016,2.98-0.626
			c0.262-0.177,0.45-0.497,0.729-0.61c1.315-0.535,2.996-0.656,3.736,0.34c0.625,0.841-0.736,1.921-1.559,2.625
			c-2.657,2.271-7.164,2.138-9.944-0.229c-2.693-2.294-3.386-7.057-1.502-10.328c1.751-3.041,5.938-4.599,9.142-3.402
			c2.702,1.009,5.087,5.188,4.661,8.001c-0.12,0.79-0.528,0.856-1.121,0.855c-1.358-0.002-2.717,0-4.075,0
			C192.904,313.665,192.904,313.679,192.904,313.692z"/>
		<path fill-rule="evenodd" clip-rule="evenodd" fill="#CB651B" d="M297.696,312.302c0.032,4.627-3.407,7.971-8.275,8.046
			c-4.294,0.065-8.092-3.669-8.189-8.054c-0.097-4.377,3.617-7.724,8.575-7.726C294.493,304.566,297.663,307.674,297.696,312.302z"
			/>
		<path fill-rule="evenodd" clip-rule="evenodd" fill="#CC651B" d="M232.923,304.563c2.104-0.052,3.567-0.007,4.877,0.643
			c1.097,0.545,2.288,1.581,1.821,2.73c-0.457,1.126-1.963,1.157-3.183,0.674c-0.592-0.234-1.158-0.535-1.732-0.813
			c-0.43-0.208-0.838-0.476-1.285-0.633c-1.231-0.432-2.137,0.217-2.5,1.233c-0.414,1.16,0.867,1.184,1.495,1.385
			c2.046,0.657,4.169,1.105,6.083,2.113c2.763,1.457,3.151,3.682,1.137,6.059c-2.715,3.206-9.673,3.188-12.308-0.052
			c-0.384-0.472-0.994-0.978-0.695-1.662c0.296-0.676,1.061-0.608,1.69-0.671c0.997-0.1,1.881,0.205,2.713,0.741
			c0.602,0.388,1.202,0.825,1.866,1.057c1.388,0.486,2.907,0.011,3.262-1.2c0.398-1.361-1-1.838-2.284-2.062
			c-1.406-0.244-2.83-0.549-4.154-1.063c-1.914-0.744-3.306-2.157-3.183-4.322c0.125-2.192,1.724-3.248,3.714-3.85
			C231.362,304.541,232.469,304.598,232.923,304.563z"/>
		<path fill-rule="evenodd" clip-rule="evenodd" fill="#CC6701" d="M236.587,276.021c0,3.594-0.047,7.189,0.024,10.782
			c0.026,1.348-0.191,1.991-1.792,1.982c-3.575-0.018-3.58,0.082-3.575-3.493c0.011-6.869,0.132-13.739-0.012-20.604
			c-0.055-2.598,1.6-1.738,2.831-1.826c1.333-0.094,2.652-0.359,2.532,1.902c-0.199,3.743-0.054,7.504-0.054,11.257
			C236.556,276.021,236.571,276.021,236.587,276.021z"/>
		<path fill-rule="evenodd" clip-rule="evenodd" fill="#CC6702" d="M248.227,320.317c-1.969-0.199-2.868-1.424-3.005-3.193
			c-0.137-1.748-0.07-3.511-0.106-5.267c-0.031-1.525-0.16-2.966-1.366-4.174c-0.855-0.856-1.006-1.962,0.092-2.899
			c0.896-0.765,1.064-1.932,1.601-2.893c0.582-1.041,1.678-1.701,2.777-1.47c0.954,0.2,0.482,1.366,0.479,2.09
			c-0.005,1.224,0.073,2.18,1.664,2.262c0.669,0.034,1.563,0.357,1.396,1.294c-0.132,0.742,0.071,1.912-1.316,1.856
			c-0.228-0.009-0.47,0.082-0.688,0.169c-0.891,0.359-1.304,1.183-0.968,1.935c0.975,2.184-1.31,5.078,1.43,6.757
			c0.745,0.457,1.888,0.196,1.682,1.662c-0.187,1.334-1.251,1.24-2.102,1.514C249.271,320.127,248.717,320.208,248.227,320.317z"/>
		<path fill-rule="evenodd" clip-rule="evenodd" fill="#CC6702" d="M218.804,309.524c0-2.787,0.058-5.576-0.024-8.361
			c-0.04-1.342,0.162-2.083,1.778-1.961c1.432,0.108,2.667-0.037,2.62,2.06c-0.115,5.014-0.062,10.032-0.077,15.048
			c-0.001,0.318,0.001,0.637,0,0.956c-0.008,2.036-1.667,3.196-3.65,2.636c-0.966-0.273-0.62-0.993-0.627-1.536
			C218.785,315.418,218.805,312.471,218.804,309.524z"/>
		<path fill-rule="evenodd" clip-rule="evenodd" fill="#CC6701" d="M201.778,309.508c0-2.869,0.059-5.739-0.027-8.605
			c-0.039-1.304,0.447-1.943,1.701-2.036c1.293-0.096,2.284,0.363,2.296,1.786c0.051,5.975,0.094,11.952,0.011,17.926
			c-0.027,1.96-1.867,0.885-2.817,1.24c-1.137,0.424-1.165-0.643-1.164-1.466C201.78,315.404,201.778,312.456,201.778,309.508z"/>
		<path fill-rule="evenodd" clip-rule="evenodd" fill="#CC671D" d="M179.954,261.147c1.098-5.12,1.677-5.51,7.269-4.87
			C185.761,259.308,183.724,261.298,179.954,261.147z"/>
		<path fill-rule="evenodd" clip-rule="evenodd" fill="#CC6701" d="M423.463,583.593c-5.705-3.938-10.471-7.94-15.34-11.804
			c-5.572-4.42-11.06-8.948-16.635-13.365c-1.626-1.288-2.626-2.8-2.485-4.891c0.513-7.596-0.519-15.172-0.264-22.765
			c0.005-0.159-0.001-0.319,0.001-0.479c0.059-3.912,0.059-3.916,3.944-3.941c9.997-0.064,19.994-0.081,29.989-0.225
			c1.889-0.027,2.465,0.556,2.523,2.432c0.209,6.623,0.547,13.243,0.944,19.857c0.138,2.303-0.683,3.209-2.989,2.89
			c-1.418-0.196-2.873-0.113-4.295-0.29c-1.973-0.245-2.019,0.725-1.697,2.247C419.242,563.141,421.275,573.033,423.463,583.593z"/>
		<path fill-rule="evenodd" clip-rule="evenodd" fill="#FEFEFE" d="M290.81,275.93c-0.002,6.17-3.027,9.181-8.988,9.015
			c-1.511-0.042-2.811-0.552-3.925-1.497c-3.484-2.953-3.693-6.903-2.897-10.917c0.656-3.308,3.165-4.929,6.355-5.674
			c4.862-1.135,9.119,2.156,9.449,7.4C290.839,274.813,290.809,275.372,290.81,275.93z"/>
		<path fill-rule="evenodd" clip-rule="evenodd" fill="#FEFEFE" d="M182.792,266.619c4.996,0.003,8.115,3.527,8.111,9.165
			c-0.003,5.385-3.427,9.437-8.058,9.537c-4.624,0.1-8.195-4.077-8.213-9.605C174.614,270.135,177.771,266.615,182.792,266.619z"/>
		<path fill-rule="evenodd" clip-rule="evenodd" fill="#FEFEFE" d="M128.413,304.088c1.9-0.166,3.669,0.149,5.399,0.857
			c2.801,1.148,4.721,2.991,4.802,6.171c0.08,3.165-1.914,5.819-5.145,6.992c-3.669,1.332-7.336,1.121-10.924-0.303
			c-2.52-1-3.956-2.917-4.057-5.648c-0.106-2.886,0.805-5.303,3.548-6.748C124.056,304.344,126.182,303.869,128.413,304.088z"/>
		<path fill-rule="evenodd" clip-rule="evenodd" fill="#FEFEFE" d="M172.569,317.101c-2.476,0-4.142-2.058-4.182-5.17
			c-0.032-2.463,1.692-4.193,4.183-4.197c2.371-0.004,4.001,1.665,3.999,4.092C176.564,315.026,174.991,317.1,172.569,317.101z"/>
		<path fill-rule="evenodd" clip-rule="evenodd" fill="#FDFBFA" d="M191.133,311.577c-1.108-1.09-3.316,0.529-3.356-1.536
			c-0.032-1.637,1.313-2.759,3.276-2.649c1.924,0.107,2.769,1.384,2.722,2.948C193.709,312.538,191.778,310.433,191.133,311.577z"/>
		<path fill-rule="evenodd" clip-rule="evenodd" fill="#FEFEFE" d="M293.703,312.414c0.028,2.832-1.489,4.646-3.919,4.686
			c-2.502,0.042-4.273-1.734-4.331-4.34c-0.053-2.406,2.027-5.263,3.849-5.286C291.822,307.442,293.674,309.522,293.703,312.414z"/>
		<path fill-rule="evenodd" clip-rule="evenodd" fill="#FEFEFE" d="M404.551,541.695c1.177,5.83,2.303,11.406,3.528,17.478
			c-3.187-1.895-5.822-3.782-8.094-6.048c-1.332-1.33-1.156-3.415-1.164-5.243c-0.017-3.892,0.939-7.775,0.069-11.675
			c-0.167-0.751,0.244-1.035,0.937-0.968c4.697,0.46,9.406,0.114,14.109,0.176c1.254,0.017,1.783,0.428,1.629,1.67
			c-0.02,0.157,0.013,0.321-0.006,0.479c-0.512,4.593,0.7,4.104-4.191,4.13C409.143,541.705,406.916,541.695,404.551,541.695z"/>
	</g>
</g>
</svg>
